#Comment line ignore any data following # character 
#Hierarchical Translation and Rotation (.htr) file 
[Header]	
#Header keywords are followed by a single value 
FileType HTR		#Single word string
DataType HTRS		#Translation followed by rotation and scale data
FileVersion 1		#integer
NumSegments 84		#integer
NumFrames 2		#integer
DataFrameRate 30		#integer, data frame rate in this file
EulerRotationOrder ZYX
CalibrationUnits mm
RotationUnits Degrees
GlobalAxisofGravity Y
BoneLengthAxis Y
ScaleFactor 1.00
[SegmentNames&Hierarchy]
#CHILD	PARENT
MASTER GLOBAL
root MASTER
chest root
L_mid_tent01 root
R_mid_tent01 root
spine01 root
Bip01_Neck chest
L_humerus chest
R_humerus chest
weapon_bone chest
Bip01_Head Bip01_Neck
eye_left_bone Bip01_Head
eye_right_bone Bip01_Head
L_forearm L_humerus
L_front_hand L_forearm
L_weapon_bone L_forearm
L_front_hand01_01 L_front_hand
L_front_hand02_01 L_front_hand
L_front_hand03_01 L_front_hand
L_front_hand01_02 L_front_hand01_01
L_front_hand02_02 L_front_hand02_01
L_front_hand03_02 L_front_hand03_01
R_forearm R_humerus
R_front_hand R_forearm
R_weapon_bone R_forearm
R_front_hand01_01 R_front_hand
R_front_hand02_01 R_front_hand
R_front_hand03_01 R_front_hand
R_front_hand01_02 R_front_hand01_01
R_front_hand02_02 R_front_hand02_01
R_front_hand03_02 R_front_hand03_01
null_rope01_connect L_mid_tent01
Rope1_Seg01 null_rope01_connect
Rope1_Seg02 Rope1_Seg01
Rope1_Seg03 Rope1_Seg02
Rope1_Seg04 Rope1_Seg03
Rope1_Seg05 Rope1_Seg04
Rope1_Seg06 Rope1_Seg05
Rope1_Seg07 Rope1_Seg06
Rope1_Seg09 Rope1_Seg07
L_mid_hand01 Rope1_Seg09
L_mid_hand02 Rope1_Seg09
L_mid_hand03 Rope1_Seg09
null_rope02_connect R_mid_tent01
Rope2_Seg01 null_rope02_connect
Rope2_Seg02 Rope2_Seg01
Rope2_Seg03 Rope2_Seg02
Rope2_Seg04 Rope2_Seg03
Rope2_Seg05 Rope2_Seg04
Rope2_Seg06 Rope2_Seg05
Rope2_Seg07 Rope2_Seg06
Rope2_Seg09 Rope2_Seg07
R_mid_hand01 Rope2_Seg09
R_mid_hand02 Rope2_Seg09
R_mid_hand03 Rope2_Seg09
spine02 spine01
spine03 spine02
pelvis spine03
null_rope03_connect pelvis
null_rope04_connect pelvis
Rope3_Seg01 null_rope03_connect
Rope3_Seg02 Rope3_Seg01
Rope3_Seg03 Rope3_Seg02
Rope3_Seg04 Rope3_Seg03
Rope3_Seg05 Rope3_Seg04
Rope3_Seg06 Rope3_Seg05
Rope3_Seg07 Rope3_Seg06
Rope3_Seg08 Rope3_Seg07
Rope3_Seg09 Rope3_Seg08
R_rear_hand01 Rope3_Seg09
R_rear_hand02 Rope3_Seg09
R_rear_hand03 Rope3_Seg09
Rope4_Seg01 null_rope04_connect
Rope4_Seg02 Rope4_Seg01
Rope4_Seg03 Rope4_Seg02
Rope4_Seg04 Rope4_Seg03
Rope4_Seg05 Rope4_Seg04
Rope4_Seg06 Rope4_Seg05
Rope4_Seg07 Rope4_Seg06
Rope4_Seg08 Rope4_Seg07
Rope4_Seg09 Rope4_Seg08
L_rear_hand01 Rope4_Seg09
L_rear_hand02 Rope4_Seg09
L_rear_hand03 Rope4_Seg09
[BasePosition]
#SegmentName Tx, Ty, Tz, Rx, Ry, Rz, BoneLength
MASTER 0.000000 0.000000 0.000000 -90.000000 0.000000 0.000000 10.000000 
root 0.000000 0.000000 0.000000 0.000000 0.000000 0.000000 10.000000 
chest 0.000000 0.000000 0.000000 0.000000 0.000000 0.000000 10.000000 
L_mid_tent01 0.000000 0.000000 0.000000 0.000000 0.000000 0.000000 10.000000 
R_mid_tent01 0.000000 0.000000 0.000000 0.000000 0.000000 0.000000 10.000000 
spine01 0.000000 0.000000 0.000000 0.000000 0.000000 0.000000 10.000000 
Bip01_Neck 0.000000 0.000000 0.000000 0.000000 0.000000 0.000000 10.000000 
L_humerus 0.000000 0.000000 0.000000 0.000000 0.000000 0.000000 10.000000 
R_humerus 0.000000 0.000000 0.000000 0.000000 0.000000 0.000000 10.000000 
weapon_bone 0.000000 0.000000 0.000000 0.000000 0.000000 0.000000 10.000000 
Bip01_Head 0.000000 0.000000 0.000000 0.000000 0.000000 0.000000 10.000000 
eye_left_bone 0.000000 0.000000 0.000000 0.000000 0.000000 0.000000 10.000000 
eye_right_bone 0.000000 0.000000 0.000000 0.000000 0.000000 0.000000 10.000000 
L_forearm 0.000000 0.000000 0.000000 0.000000 0.000000 0.000000 10.000000 
L_front_hand 0.000000 0.000000 0.000000 0.000000 0.000000 0.000000 10.000000 
L_weapon_bone 0.000000 0.000000 0.000000 0.000000 0.000000 0.000000 10.000000 
L_front_hand01_01 0.000000 0.000000 0.000000 0.000000 0.000000 0.000000 10.000000 
L_front_hand02_01 0.000000 0.000000 0.000000 0.000000 0.000000 0.000000 10.000000 
L_front_hand03_01 0.000000 0.000000 0.000000 0.000000 0.000000 0.000000 10.000000 
L_front_hand01_02 0.000000 0.000000 0.000000 0.000000 0.000000 0.000000 10.000000 
L_front_hand02_02 0.000000 0.000000 0.000000 0.000000 0.000000 0.000000 10.000000 
L_front_hand03_02 0.000000 0.000000 0.000000 0.000000 0.000000 0.000000 10.000000 
R_forearm 0.000000 0.000000 0.000000 0.000000 0.000000 0.000000 10.000000 
R_front_hand 0.000000 0.000000 0.000000 0.000000 0.000000 0.000000 10.000000 
R_weapon_bone 0.000000 0.000000 0.000000 0.000000 0.000000 0.000000 10.000000 
R_front_hand01_01 0.000000 0.000000 0.000000 0.000000 0.000000 0.000000 10.000000 
R_front_hand02_01 0.000000 0.000000 0.000000 0.000000 0.000000 0.000000 10.000000 
R_front_hand03_01 0.000000 0.000000 0.000000 0.000000 0.000000 0.000000 10.000000 
R_front_hand01_02 0.000000 0.000000 0.000000 0.000000 0.000000 0.000000 10.000000 
R_front_hand02_02 0.000000 0.000000 0.000000 0.000000 0.000000 0.000000 10.000000 
R_front_hand03_02 0.000000 0.000000 0.000000 0.000000 0.000000 0.000000 10.000000 
null_rope01_connect 0.000000 0.000000 0.000000 0.000000 0.000000 0.000000 10.000000 
Rope1_Seg01 0.000000 0.000000 0.000000 0.000000 0.000000 0.000000 10.000000 
Rope1_Seg02 0.000000 0.000000 0.000000 0.000000 0.000000 0.000000 10.000000 
Rope1_Seg03 0.000000 0.000000 0.000000 0.000000 0.000000 0.000000 10.000000 
Rope1_Seg04 0.000000 0.000000 0.000000 0.000000 0.000000 0.000000 10.000000 
Rope1_Seg05 0.000000 0.000000 0.000000 0.000000 0.000000 0.000000 10.000000 
Rope1_Seg06 0.000000 0.000000 0.000000 0.000000 0.000000 0.000000 10.000000 
Rope1_Seg07 0.000000 0.000000 0.000000 0.000000 0.000000 0.000000 10.000000 
Rope1_Seg09 0.000000 0.000000 0.000000 0.000000 0.000000 0.000000 10.000000 
L_mid_hand01 0.000000 0.000000 0.000000 0.000000 0.000000 0.000000 10.000000 
L_mid_hand02 0.000000 0.000000 0.000000 0.000000 0.000000 0.000000 10.000000 
L_mid_hand03 0.000000 0.000000 0.000000 0.000000 0.000000 0.000000 10.000000 
null_rope02_connect 0.000000 0.000000 0.000000 0.000000 0.000000 0.000000 10.000000 
Rope2_Seg01 0.000000 0.000000 0.000000 0.000000 0.000000 0.000000 10.000000 
Rope2_Seg02 0.000000 0.000000 0.000000 0.000000 0.000000 0.000000 10.000000 
Rope2_Seg03 0.000000 0.000000 0.000000 0.000000 0.000000 0.000000 10.000000 
Rope2_Seg04 0.000000 0.000000 0.000000 0.000000 0.000000 0.000000 10.000000 
Rope2_Seg05 0.000000 0.000000 0.000000 0.000000 0.000000 0.000000 10.000000 
Rope2_Seg06 0.000000 0.000000 0.000000 0.000000 0.000000 0.000000 10.000000 
Rope2_Seg07 0.000000 0.000000 0.000000 0.000000 0.000000 0.000000 10.000000 
Rope2_Seg09 0.000000 0.000000 0.000000 0.000000 0.000000 0.000000 10.000000 
R_mid_hand01 0.000000 0.000000 0.000000 0.000000 0.000000 0.000000 10.000000 
R_mid_hand02 0.000000 0.000000 0.000000 0.000000 0.000000 0.000000 10.000000 
R_mid_hand03 0.000000 0.000000 0.000000 0.000000 0.000000 0.000000 10.000000 
spine02 0.000000 0.000000 0.000000 0.000000 0.000000 0.000000 10.000000 
spine03 0.000000 0.000000 0.000000 0.000000 0.000000 0.000000 10.000000 
pelvis 0.000000 0.000000 0.000000 0.000000 0.000000 0.000000 10.000000 
null_rope03_connect 0.000000 0.000000 0.000000 0.000000 0.000000 0.000000 10.000000 
null_rope04_connect 0.000000 0.000000 0.000000 0.000000 0.000000 0.000000 10.000000 
Rope3_Seg01 0.000000 0.000000 0.000000 0.000000 0.000000 0.000000 10.000000 
Rope3_Seg02 0.000000 0.000000 0.000000 0.000000 0.000000 0.000000 10.000000 
Rope3_Seg03 0.000000 0.000000 0.000000 0.000000 0.000000 0.000000 10.000000 
Rope3_Seg04 0.000000 0.000000 0.000000 0.000000 0.000000 0.000000 10.000000 
Rope3_Seg05 0.000000 0.000000 0.000000 0.000000 0.000000 0.000000 10.000000 
Rope3_Seg06 0.000000 0.000000 0.000000 0.000000 0.000000 0.000000 10.000000 
Rope3_Seg07 0.000000 0.000000 0.000000 0.000000 0.000000 0.000000 10.000000 
Rope3_Seg08 0.000000 0.000000 0.000000 0.000000 0.000000 0.000000 10.000000 
Rope3_Seg09 0.000000 0.000000 0.000000 0.000000 0.000000 0.000000 10.000000 
R_rear_hand01 0.000000 0.000000 0.000000 0.000000 0.000000 0.000000 10.000000 
R_rear_hand02 0.000000 0.000000 0.000000 0.000000 0.000000 0.000000 10.000000 
R_rear_hand03 0.000000 0.000000 0.000000 0.000000 0.000000 0.000000 10.000000 
Rope4_Seg01 0.000000 0.000000 0.000000 0.000000 0.000000 0.000000 10.000000 
Rope4_Seg02 0.000000 0.000000 0.000000 0.000000 0.000000 0.000000 10.000000 
Rope4_Seg03 0.000000 0.000000 0.000000 0.000000 0.000000 0.000000 10.000000 
Rope4_Seg04 0.000000 0.000000 0.000000 0.000000 0.000000 0.000000 10.000000 
Rope4_Seg05 0.000000 0.000000 0.000000 0.000000 0.000000 0.000000 10.000000 
Rope4_Seg06 0.000000 0.000000 0.000000 0.000000 0.000000 0.000000 10.000000 
Rope4_Seg07 0.000000 0.000000 0.000000 0.000000 0.000000 0.000000 10.000000 
Rope4_Seg08 0.000000 0.000000 0.000000 0.000000 0.000000 0.000000 10.000000 
Rope4_Seg09 0.000000 0.000000 0.000000 0.000000 0.000000 0.000000 10.000000 
L_rear_hand01 0.000000 0.000000 0.000000 0.000000 0.000000 0.000000 10.000000 
L_rear_hand02 0.000000 0.000000 0.000000 0.000000 0.000000 0.000000 10.000000 
L_rear_hand03 0.000000 0.000000 0.000000 0.000000 0.000000 0.000000 10.000000 
#Beginning of Data. Separated by tabs
#Fr	Tx	Ty	Tz	Rx	Ry	Rz	SF
[MASTER]
11 -2688.169678 -0.000459 0.000000 0.001516 0.001792 -9.524801 2688.169678
12 -2908.477783 -0.000501 0.000000 0.001491 0.001813 -11.103940 2908.477783
[root]
11 -83.092041 -63.111305 891.405212 -80.590424 -42.707085 -101.937035 897.491272
12 -92.418205 -63.183590 885.471985 -83.504089 -43.823997 -100.507416 892.521118
[chest]
11 -84.512650 -34.090519 0.000000 11.309758 -8.446270 -173.364288 91.129311
12 -84.512650 -34.090519 0.000000 9.528248 -10.851938 -173.560837 91.129311
[L_mid_tent01]
11 27.299587 22.177526 -249.918137 0.150034 15.657982 45.102844 252.381027
12 27.299603 22.177530 -249.918167 0.282688 22.815878 47.370121 252.381058
[R_mid_tent01]
11 23.228794 24.509907 226.238495 160.573608 -19.215273 89.235718 228.744751
12 23.228794 24.509907 226.238495 157.290207 -18.812519 90.804115 228.744751
[spine01]
11 -0.361383 -0.195265 0.000000 0.381149 0.427032 13.556459 0.410763
12 -0.361383 -0.195265 0.000000 0.309673 0.419849 13.332015 0.410763
[Bip01_Neck]
11 165.484543 71.581718 0.000119 175.896118 1.177290 24.871180 180.302734
12 165.484543 71.581718 0.000119 175.896118 1.177290 24.871183 180.302734
[L_humerus]
11 -13.983130 -135.272980 -120.471481 -172.684937 81.587349 -85.577446 181.680161
12 -13.983130 -135.272980 -120.471481 -176.493073 81.631744 -88.740738 181.680161
[R_humerus]
11 -13.983309 -135.273102 125.287651 -166.651978 -69.343338 -96.821228 184.909012
12 -13.983309 -135.273102 125.287651 -165.001877 -69.270126 -97.855804 184.909012
[weapon_bone]
11 235.964890 -300.705902 0.000000 0.000000 -89.951546 -128.212341 382.234833
12 235.964890 -300.705902 0.000000 0.000000 -89.951546 -128.212341 382.234833
[Bip01_Head]
11 256.126526 89.092407 -9.797974 1.044916 4.547842 -70.751472 271.356323
12 256.104187 79.120712 -2.617798 0.980284 4.192729 -71.984261 268.060272
[eye_left_bone]
11 -24.626970 125.451866 -64.772606 0.000000 -90.000000 -99.840431 143.318359
12 -24.626970 125.451866 -64.772606 0.000000 -90.000000 -99.840431 143.318359
[eye_right_bone]
11 -24.626970 125.451866 64.327362 0.000000 -89.960434 80.159386 143.117676
12 -24.626970 125.451866 64.327362 0.000000 -89.960434 80.159386 143.117676
[L_forearm]
11 322.776093 0.000000 -0.000119 0.000389 0.002315 -70.925751 322.776093
12 322.776093 0.000000 -0.000119 0.000354 0.002321 -72.653885 322.776093
[L_front_hand]
11 241.149185 -0.042021 -3.300071 -178.992447 -2.031674 -17.806477 241.171753
12 241.149185 -0.042021 -3.300071 -178.819244 -1.938589 -22.763676 241.171753
[L_weapon_bone]
11 156.183838 0.000000 0.000000 0.002061 0.001123 32.843739 156.183838
12 156.183838 0.000000 0.000000 0.002028 0.001182 29.501062 156.183838
[L_front_hand01_01]
11 86.095154 20.947098 -0.655860 0.405585 -0.442306 -4.620490 88.609184
12 86.095154 20.947098 -0.655860 0.405585 -0.442306 -4.620490 88.609184
[L_front_hand02_01]
11 86.935165 -11.437475 24.513514 116.959450 3.630817 1.495453 91.046425
12 86.935165 -11.437475 24.513514 116.959450 3.630817 1.495453 91.046425
[L_front_hand03_01]
11 86.637497 -14.123976 -20.424902 -118.420097 -4.656304 -0.152527 90.126129
12 86.637497 -14.123976 -20.424902 -118.420097 -4.656303 -0.152527 90.126129
[L_front_hand01_02]
11 71.020905 -0.000179 0.000030 0.001534 0.001777 -8.378850 71.020905
12 71.020905 -0.000179 0.000030 0.001534 0.001777 -8.378851 71.020905
[L_front_hand02_02]
11 71.020927 -0.000119 0.000060 0.001534 0.001777 -8.378850 71.020927
12 71.020927 -0.000119 0.000060 0.001534 0.001777 -8.378851 71.020927
[L_front_hand03_02]
11 71.020905 -0.000060 0.000060 0.001534 0.001777 -8.378850 71.020905
12 71.020905 -0.000060 0.000060 0.001534 0.001777 -8.378851 71.020905
[R_forearm]
11 322.776428 -0.000060 0.000030 0.199853 -0.075200 -70.144608 322.776428
12 322.776428 -0.000060 0.000030 0.199706 -0.075589 -69.921173 322.776428
[R_front_hand]
11 238.847015 -0.006795 2.210259 -1.326909 1.107633 -38.799011 238.857239
12 238.847015 -0.006795 2.210259 -1.498721 0.862117 -48.803570 238.857239
[R_weapon_bone]
11 155.664093 0.002503 -0.000030 0.002809 0.002379 -134.121277 155.664078
12 155.664093 0.002503 -0.000030 0.002876 0.002297 -130.830246 155.664078
[R_front_hand01_01]
11 87.624611 14.231146 22.918642 -116.960205 3.496675 -1.324138 91.683487
12 87.624611 14.231146 22.918642 -116.960213 3.496675 -1.324139 91.683487
[R_front_hand02_01]
11 89.356956 14.367283 -19.491137 118.419647 -4.257089 0.609827 92.579636
12 89.356956 14.367283 -19.491137 118.419647 -4.257089 0.609827 92.579636
[R_front_hand03_01]
11 87.286232 -22.307278 -0.143439 -0.387970 -0.231462 4.232001 90.091743
12 87.286232 -22.307278 -0.143439 -0.387970 -0.231462 4.232001 90.091743
[R_front_hand01_02]
11 71.020905 0.000060 0.000119 0.001777 0.001534 8.377220 71.020905
12 71.020905 0.000060 0.000119 0.001777 0.001534 8.377220 71.020905
[R_front_hand02_02]
11 71.020844 -0.000030 -0.000119 0.001777 0.001534 8.377220 71.020836
12 71.020844 -0.000030 -0.000119 0.001777 0.001534 8.377220 71.020836
[R_front_hand03_02]
11 71.020905 0.000000 0.000030 0.001777 0.001534 8.377220 71.020905
12 71.020905 0.000000 0.000030 0.001777 0.001534 8.377220 71.020905
[null_rope01_connect]
11 328.732483 0.000000 -0.000238 -77.913864 -58.639996 165.833755 328.732483
12 328.732483 0.000000 -0.000238 -84.875198 -49.954514 171.164154 328.732483
[Rope1_Seg01]
11 0.000000 0.000000 0.000000 -168.590866 71.988602 -150.622238 0.000000
12 0.000000 0.000000 0.000000 -159.733139 76.099136 -144.404617 0.000000
[Rope1_Seg02]
11 139.999863 -0.000179 0.000000 -1.321615 -6.094879 8.882223 139.999863
12 139.999863 -0.000179 0.000000 -1.679654 -7.498762 11.107985 139.999863
[Rope1_Seg03]
11 139.999924 0.000060 -0.000060 -2.377783 -9.924814 15.817819 139.999924
12 139.999924 0.000060 -0.000060 -2.744422 -10.587477 18.819124 139.999924
[Rope1_Seg04]
11 139.999924 -0.000060 -0.000119 -2.905018 -14.625679 24.692778 139.999924
12 139.999924 -0.000060 -0.000119 -2.954344 -16.681351 24.599508 139.999924
[Rope1_Seg05]
11 139.999832 0.000119 -0.000060 -9.247375 -24.352552 19.584835 139.999832
12 139.999832 0.000119 -0.000060 -9.970218 -21.603233 14.003362 139.999832
[Rope1_Seg06]
11 139.999954 0.000119 -0.000060 -6.466744 -10.134564 5.530294 139.999954
12 139.999954 0.000119 -0.000060 -6.140057 -8.371227 3.883466 139.999954
[Rope1_Seg07]
11 139.999985 0.000060 0.000000 -3.613670 -4.505309 2.288186 139.999985
12 139.999985 0.000060 0.000000 -3.776550 -4.100555 1.691740 139.999985
[Rope1_Seg09]
11 121.602913 0.000119 -0.000089 -89.793175 -1.359789 0.847147 121.602913
12 121.602913 0.000119 -0.000089 -89.793175 -1.359789 0.847147 121.602913
[L_mid_hand01]
11 103.859421 1.038730 8.195221 104.353477 -0.000248 -0.529904 104.187431
12 103.859421 1.038730 8.195221 104.355774 -0.956058 -0.777194 104.187431
[L_mid_hand02]
11 105.572853 -4.139662 -10.864139 -135.628891 4.147943 -3.635983 106.211075
12 105.572853 -4.139662 -10.864139 -135.680969 4.839560 -4.340801 106.211075
[L_mid_hand03]
11 104.641464 17.579376 -3.913581 -18.765770 -0.214116 3.275741 106.179977
12 104.641464 17.579376 -3.913581 -18.765802 0.105102 4.206013 106.179977
[null_rope02_connect]
11 328.732849 0.000179 -0.000119 -115.604256 76.561302 14.770808 328.732849
12 328.732849 0.000179 -0.000119 -96.579597 78.000107 34.978649 328.732849
[Rope2_Seg01]
11 -0.000061 0.000134 0.000153 -15.183828 -20.842772 -11.707958 0.000212
12 -0.000060 0.000134 0.000153 -13.596265 -25.482107 -10.988335 0.000211
[Rope2_Seg02]
11 139.999741 -0.000060 -0.000119 -11.075942 6.938364 12.108027 139.999756
12 139.999741 -0.000060 -0.000119 -7.864168 6.153459 9.479862 139.999756
[Rope2_Seg03]
11 140.000107 0.000030 0.000000 -15.700253 7.797827 20.860380 140.000107
12 140.000107 0.000030 0.000000 -13.199928 8.368537 18.154116 140.000107
[Rope2_Seg04]
11 139.999802 0.000000 -0.000060 -13.918861 5.543026 25.556269 139.999802
12 139.999802 0.000000 -0.000060 -16.138748 10.865163 28.928007 139.999802
[Rope2_Seg05]
11 139.999985 -0.000060 0.000119 -3.434140 -12.611254 12.780748 139.999985
12 139.999985 -0.000060 0.000119 -6.167318 -8.039808 18.614195 139.999985
[Rope2_Seg06]
11 139.999893 -0.000030 -0.000119 -0.612387 -16.258650 4.436678 139.999893
12 139.999893 -0.000030 -0.000119 -1.057019 -18.452078 6.695838 139.999893
[Rope2_Seg07]
11 139.999893 0.000060 -0.000060 -0.177445 -7.261708 3.993102 139.999893
12 139.999893 0.000060 -0.000060 -0.354262 -10.075317 5.386992 139.999893
[Rope2_Seg09]
11 121.338966 0.000089 -0.000060 33.793236 -1.359788 -0.847141 121.338966
12 121.338966 0.000089 -0.000060 33.793236 -1.359788 -0.847141 121.338966
[R_mid_hand01]
11 104.680779 11.144459 -10.335981 -47.336269 3.795512 6.220475 105.778534
12 104.680779 11.144459 -10.335981 -47.275349 4.744051 7.096739 105.778534
[R_mid_hand02]
11 104.070427 2.443552 8.231699 75.611839 -3.350028 1.391578 104.424065
12 104.070427 2.443552 8.231699 75.589325 -4.596537 1.716218 104.424065
[R_mid_hand03]
11 106.028137 -11.221827 -5.996406 -164.430145 2.798768 -7.230777 106.788818
12 106.028137 -11.221827 -5.996406 -164.493469 3.146489 -8.476594 106.788818
[spine02]
11 129.756927 0.001550 0.000119 -0.176045 -4.153313 -5.388308 129.756927
12 129.756927 0.001550 0.000119 -0.162202 -4.135054 -5.567168 129.756927
[spine03]
11 78.762459 0.061404 -3.447990 1.416160 1.751387 6.323554 78.837921
12 78.784332 0.057602 -3.234558 1.521987 1.334080 7.925144 78.850723
[pelvis]
11 169.435242 0.051022 0.000000 124.489143 14.081402 9.228273 169.435257
12 169.435242 0.051022 0.000000 103.321426 15.255924 5.663147 169.435257
[null_rope03_connect]
11 -1.257226 -2.466202 137.391083 39.224186 31.915928 124.119484 137.418976
12 -1.257226 -2.466202 137.391083 30.016766 9.966054 120.873520 137.418976
[null_rope04_connect]
11 -1.259640 -2.480268 -137.844437 39.224186 31.915928 124.119484 137.872513
12 -1.259640 -2.480268 -137.844437 30.016766 9.966054 120.873520 137.872513
[Rope3_Seg01]
11 0.000000 0.000000 0.000000 -76.661133 -35.111713 -151.171616 0.000000
12 0.000000 0.000000 0.000000 -76.028946 -47.749275 -149.467422 0.000000
[Rope3_Seg02]
11 139.999924 -0.000119 0.000060 21.189394 32.722591 -17.608604 139.999924
12 139.999924 -0.000119 0.000060 6.522402 25.791561 -25.856722 139.999924
[Rope3_Seg03]
11 139.999924 -0.000119 0.000119 12.387337 23.976427 -22.680050 139.999924
12 139.999924 -0.000119 0.000119 1.350202 22.356878 -23.063824 139.999924
[Rope3_Seg04]
11 139.999924 0.000119 0.000000 2.978841 2.685469 -16.400038 139.999924
12 139.999924 0.000119 0.000000 -0.324424 5.200408 -15.556690 139.999924
[Rope3_Seg05]
11 139.999924 -0.000238 0.000060 1.482267 -7.406675 -20.100836 139.999924
12 139.999924 -0.000238 0.000060 -1.360736 -3.460795 -21.318773 139.999924
[Rope3_Seg06]
11 139.999893 -0.000119 -0.000060 -0.011735 -5.117144 -13.694101 139.999893
12 139.999893 -0.000119 -0.000060 -3.378212 -2.059004 -15.119850 139.999893
[Rope3_Seg07]
11 139.999771 0.000060 -0.000119 -0.659644 -1.947497 -7.154300 139.999771
12 139.999771 0.000060 -0.000119 -3.247566 0.108024 -7.606609 139.999771
[Rope3_Seg08]
11 139.999985 -0.000060 0.000000 -0.391173 -1.056532 -4.090828 139.999985
12 139.999985 -0.000060 0.000000 -2.167823 0.306300 -4.303728 139.999985
[Rope3_Seg09]
11 90.185997 -0.000179 -0.000060 89.793228 -1.359877 -0.847183 90.185997
12 90.185997 -0.000179 -0.000060 89.793228 -1.359877 -0.847183 90.185997
[R_rear_hand01]
11 103.366196 -6.073594 -10.757982 -159.911102 14.619091 -24.012125 104.101845
12 103.366196 -6.073594 -10.757982 -156.894989 8.887354 -9.307902 104.101845
[R_rear_hand02]
11 100.509819 12.039542 -7.992327 -35.882572 15.724491 23.557304 101.543350
12 100.509819 12.039542 -7.992327 -38.307755 6.345307 10.983821 101.543350
[R_rear_hand03]
11 101.539970 5.215704 5.435467 83.734200 -24.775511 6.498349 101.819031
12 101.539970 5.215704 5.435467 84.234985 -9.371894 4.804685 101.819031
[Rope4_Seg01]
11 -0.000015 -0.000046 -0.000153 48.949371 10.017499 -85.989983 0.000160
12 -0.000015 -0.000043 -0.000153 48.153793 17.680864 -99.421577 0.000159
[Rope4_Seg02]
11 139.999985 0.000060 0.000119 -0.827870 7.964278 7.629405 139.999985
12 139.999985 0.000060 0.000119 0.296530 9.068180 5.718055 139.999985
[Rope4_Seg03]
11 139.999924 0.000000 -0.000238 -3.617677 13.708748 14.048061 139.999924
12 139.999924 0.000000 -0.000238 0.687176 17.234621 11.253388 139.999924
[Rope4_Seg04]
11 139.999985 0.000000 0.000119 -32.761330 14.071672 25.734301 139.999985
12 139.999985 0.000000 0.000119 -17.041594 21.468245 24.299101 139.999985
[Rope4_Seg05]
11 139.999802 -0.000060 -0.000119 -47.175514 0.034761 19.059769 139.999802
12 139.999802 -0.000060 -0.000119 -62.791336 13.513193 16.373093 139.999802
[Rope4_Seg06]
11 139.999924 0.000000 0.000060 -52.120567 -4.069614 21.955551 139.999924
12 139.999924 0.000000 0.000060 -111.565025 5.797807 37.341099 139.999924
[Rope4_Seg07]
11 139.999802 0.000000 0.000000 -38.554165 -27.298460 22.621099 139.999802
12 139.999802 0.000000 0.000000 -2.815215 -29.722927 -8.047827 139.999802
[Rope4_Seg08]
11 139.999924 0.000000 0.000119 -4.718650 -15.009344 -0.949076 139.999924
12 139.999924 0.000000 0.000119 -1.302037 -9.176032 -4.107447 139.999924
[Rope4_Seg09]
11 90.185791 0.000060 0.000060 -135.617828 2.228885 0.850567 90.185791
12 90.185791 0.000060 0.000060 -135.617828 2.228885 0.850567 90.185791
[L_rear_hand01]
11 101.696655 -8.392275 -7.654577 -36.168262 -14.968047 157.523178 102.329041
12 101.696655 -8.392275 -7.654577 -38.517063 -4.590807 171.240036 102.329041
[L_rear_hand02]
11 102.726799 -1.568258 5.773216 83.795876 23.490883 173.655762 102.900848
12 102.726799 -1.568258 5.773216 84.275444 6.555049 175.481003 102.900848
[L_rear_hand03]
11 104.552910 9.721220 -10.420293 -159.600342 -14.172174 -157.235031 105.519653
12 104.552910 9.721220 -10.420293 -156.517609 -7.767868 -173.313843 105.519653
